<!-- 
    got this from https://eprev.org/2015/05/27/converting-png-to-svg/
 -->
<?xml version="1.0" standalone="no"?>
<!DOCTYPE svg PUBLIC "-//W3C//DTD SVG 20010904//EN"
 "http://www.w3.org/TR/2001/REC-SVG-20010904/DTD/svg10.dtd">
<svg version="1.0" xmlns="http://www.w3.org/2000/svg"
 width="256.000000pt" height="256.000000pt" viewBox="0 0 256.000000 256.000000"
 preserveAspectRatio="xMidYMid meet">
<metadata>
Created by potrace 1.16, written by Peter Selinger 2001-2019
</metadata>
<g transform="translate(0.000000,256.000000) scale(0.100000,-0.100000)"
fill="#000000" stroke="none">
<path d="M0 2253 c0 -296 1 -306 18 -290 25 22 85 22 105 0 8 -10 39 -54 67
-98 55 -86 100 -132 135 -141 14 -3 56 8 109 31 62 27 90 34 99 27 8 -7 20 -6
37 3 36 20 55 18 101 -10 22 -14 51 -30 64 -35 l25 -9 -6 -638 c-3 -351 -7
-652 -10 -670 -6 -39 -49 -73 -92 -73 -35 0 -82 42 -82 74 0 18 -3 16 -16 -9
-36 -71 -102 -86 -153 -35 l-30 30 -5 473 c-3 259 -9 512 -13 561 -8 88 -9 90
-38 99 -93 30 -236 170 -301 296 -12 22 -14 -114 -14 -906 l0 -933 1280 0
1280 0 0 935 c0 617 -3 935 -10 935 -5 0 -10 -5 -10 -10 0 -6 -22 -43 -49 -83
-83 -123 -203 -223 -286 -239 -31 -5 -35 -68 -41 -628 -7 -559 -4 -541 -72
-566 -42 -16 -91 8 -114 56 -14 28 -18 30 -18 13 0 -28 -54 -73 -89 -73 -31 0
-66 22 -83 53 -8 16 -12 186 -15 612 -3 592 -6 685 -17 704 -4 5 -40 29 -81
52 l-74 43 47 50 c43 47 51 51 92 51 37 0 49 -5 66 -27 11 -15 33 -37 48 -49
21 -17 24 -24 15 -35 -14 -18 3 -19 33 -3 16 9 26 7 49 -10 l28 -21 36 21 c19
12 35 23 35 25 0 1 -26 2 -58 1 -74 -2 -136 28 -177 85 -25 36 -29 51 -29 108
0 57 4 71 32 111 56 82 153 110 239 68 88 -43 137 -139 113 -224 -7 -25 -17
-48 -21 -51 -12 -7 -11 -24 1 -24 6 0 28 -11 50 -25 33 -21 40 -31 40 -57 0
-19 -9 -41 -22 -55 -19 -20 -19 -23 -4 -23 26 0 115 96 162 176 24 39 53 75
68 82 31 15 85 7 93 -14 18 -47 23 17 23 291 l0 305 -1280 0 -1280 0 0 -307z
m658 -78 c19 -13 46 -40 60 -62 22 -31 26 -49 26 -104 0 -42 -5 -73 -13 -83
-8 -9 -11 -19 -7 -23 3 -3 6 -1 6 5 0 15 36 16 45 2 4 -7 12 -7 25 0 16 8 27
2 69 -40 32 -32 48 -56 45 -65 -7 -17 9 -19 36 -5 13 7 24 5 43 -10 24 -19 27
-20 60 -4 35 17 35 17 102 -21 l67 -37 -6 -161 c-3 -89 -9 -386 -12 -660 l-6
-497 -30 -30 c-46 -46 -115 -35 -145 24 l-16 31 -9 -25 c-30 -82 -136 -77
-170 8 -6 18 -10 175 -9 442 1 228 -1 515 -5 638 l-6 222 -71 41 c-40 23 -77
48 -84 57 -10 12 -19 13 -58 3 -34 -8 -57 -9 -86 -1 -23 6 -44 9 -47 6 -3 -3
0 -6 6 -6 29 0 7 -22 -48 -50 -69 -35 -99 -37 -131 -12 -35 29 -31 79 11 114
43 36 61 35 97 -2 15 -16 33 -30 39 -30 6 0 -6 17 -26 39 -68 71 -74 159 -17
247 54 81 182 105 265 49z m475 -3 c107 -71 114 -221 16 -306 -129 -110 -319
-24 -319 144 0 157 172 249 303 162z m473 -4 c66 -46 97 -105 91 -176 -7 -65
-37 -115 -90 -150 -56 -37 -156 -39 -208 -3 -51 35 -82 87 -87 148 -6 71 2 96
46 145 46 51 82 67 148 68 42 0 61 -6 100 -32z m-323 -264 c29 7 123 -90 106
-110 -14 -17 0 -18 35 -3 21 10 29 8 51 -10 25 -19 29 -19 48 -6 31 22 56 18
117 -19 l55 -32 -2 -165 c-10 -908 -15 -1146 -25 -1166 -14 -29 -66 -53 -101
-46 -15 3 -41 22 -57 41 -18 22 -30 30 -30 21 0 -9 -11 -26 -24 -38 -35 -33
-90 -31 -125 3 l-26 27 -3 427 c-1 235 -6 530 -10 657 l-7 230 -65 38 c-105
61 -99 54 -64 85 17 15 39 39 49 54 14 23 20 26 37 17 11 -6 29 -8 41 -5z"/>
<path d="M692 1874 c-7 -8 -8 -14 -3 -14 10 0 25 19 20 25 -2 1 -10 -3 -17
-11z"/>
<path d="M1483 1080 c0 -41 2 -58 4 -37 2 20 2 54 0 75 -2 20 -4 3 -4 -38z"/>
<path d="M564 990 c0 -102 2 -143 3 -92 2 50 2 134 0 185 -1 50 -3 9 -3 -93z"/>
<path d="M1963 1080 c0 -41 2 -58 4 -37 2 20 2 54 0 75 -2 20 -4 3 -4 -38z"/>
</g>
</svg>
